<svg xmlns="http://www.w3.org/2000/svg" version="1.1" x="0" y="0" viewBox="0 0 90 55" enable-background="new 0 0 90 55" xml:space="preserve">
	<path fill="#FFCA05" d="M89.1 28.1c0.6-0.7 0.9-1.1 0.9-3 0-1.2-1.2-2.8-3.3-3.6 -2.1-0.8-5.4-2-8.3-2.9v12.2c0 0-1.6-0.5-2.2-0.7v-3.4c0 0-2.5-0.7-2.9-0.8 -0.7-0.2-0.8-0.4-0.8-0.9v-0.9l3.8 1v-2.6l-3.7-1v-1.7l3.8 1V18c-1.6-0.5-5.6-1.5-8.3-2.1v10.2c0 0-0.2 1.5 1.1 2.3 -1.1-0.2-3.1-0.6-5-1 0.5 0.1 1.1-0.4 1.6-1 0.3-0.4 0.5-0.8 0.5-1.3v-6.9c0-1.4-1-2.9-2.9-3.2 0 0-3.5-0.5-6.7-0.9v12.2c0 0-1.4-0.1-1.8-0.2V14c-0.8-0.1-3.1-0.2-4.4-0.3v12.2c0 0-0.4 0-1.1 0 -0.7 0-1.2-0.7-1.2-1.4V21c0-0.7 0-1.4-0.8-1.8 0.9-0.5 1.1-1.2 1.1-2.7 -0.1-1.8-1-3-4.1-3 -1.5 0-5.2 0.1-7.1 0.3v10.6c0 0.7-0.2 1.6-1.1 1.7 -0.4 0-2.2 0.2-2.2 0.2 0.6-0.1 1.1-1.4 1.1-2.3V14c0 0-3.1 0.3-4.1 0.4v7.2c0 1.2-2.3 1.8-2.3 0.3v-7.1c0 0-2.7 0.4-3.7 0.6 0 0 0 6.6 0 7.1 0 1.5-2.4 1.8-2.4 0.5v-7.2c0 0-3.1 0.7-4.1 0.9v9.7c0 0.5 0.1 2 1 2.3 0 0-2.1 0.5-4 1 0.6-0.3 0.9-1.3 0.9-2.1v-8.3c0-0.6-0.2-1.9-1.7-1.6 -1.3 0.2-5.8 1.7-6.7 2.1C8 19.8 7.8 19.9 7.7 20c-0.6 0.4-1 1.1-1 2.2v8.3c0 0 0 1.5 0.9 1.7l-1.5 0.6c-0.4 0.2-1.4 0.2-1.4-0.7V21.2c-0.8 0.2-3.6 1.4-4.7 2v15c0 0.7 0.6 1.7 1.6 1.3 14.5-6.6 30.2-8.7 38.2-8.8 1.8 0 1.8-1.6 1.8-1.6v-8.3c1.6 0 2-0.1 2 1.5V29c0 1.1 0.4 1.6 1.5 1.6 11.6 0 24.3 1.9 36 5.9 1.2 0.4 1.8-0.4 1.8-1.4v-7.8c0.3 0.1 1.8 0.4 1.8 1.7v6.9c0 0.4 0.1 1.4-0.7 1.6 0.8 0.3 3.7 1.5 4.4 1.8 0.7 0.4 1.2-0.5 1.2-1.3V30C89.8 29.1 89.7 28.6 89.1 28.1zM10.7 26.1v-3.7c0-1 1.8-1.6 1.8-0.5v3.5C12.5 27.1 10.7 27.2 10.7 26.1zM24.5 28c0.9-0.2 2.4-2 2.4-3.1 0.3 0.7 0.8 1.9 2.8 2.2C28.5 27.4 26.7 27.7 24.5 28zM42.9 18.6h-1.8v-2.7l1.8-0.1c1.1 0 1.4 0.9 1.4 1.3C44.2 17.6 44.1 18.5 42.9 18.6zM61.6 22.6l-1.1-0.1v-4.9l1.1 0.1c0.5 0.1 0.7 0.5 0.7 1v3.2C62.4 21.9 62.2 22.7 61.6 22.6zM84.2 25.8l-1.5-0.5v-3.1l1.8 0.6c0.9 0.3 1.1 0.9 1.1 1.8C85.6 25.4 85.2 26.1 84.2 25.8z"/>
</svg>